<?xml version="1.0" standalone="no"?>
<!DOCTYPE svg PUBLIC "-//W3C//DTD SVG 20010904//EN"
 "http://www.w3.org/TR/2001/REC-SVG-20010904/DTD/svg10.dtd">
<svg version="1.0" xmlns="http://www.w3.org/2000/svg"
 width="124.000000pt" height="124.000000pt" viewBox="0 0 124.000000 124.000000"
 preserveAspectRatio="xMidYMid meet">
<metadata>
Created by potrace 1.11, written by Peter Selinger 2001-2013
</metadata>
<g transform="translate(0.000000,124.000000) scale(0.100000,-0.100000)"
fill="#000000" stroke="none">
<path d="M373 1213 c9 -2 23 -2 30 0 6 3 -1 5 -18 5 -16 0 -22 -2 -12 -5z"/>
<path d="M570 1204 c0 -13 -7 -15 -35 -11 -28 5 -37 2 -45 -13 -13 -24 -13
-33 0 -25 6 3 10 -5 10 -18 0 -34 27 -42 49 -15 22 26 51 18 51 -14 0 -51 17
-51 34 -2 9 27 24 60 32 74 l15 25 -5 -25 c-4 -14 -11 -58 -17 -99 -11 -76 -3
-105 21 -76 7 8 18 15 24 15 7 0 22 14 35 31 25 33 39 33 21 0 -9 -18 -8 -21
8 -21 10 0 23 -5 29 -11 8 -8 19 -4 40 15 18 17 29 22 32 14 2 -7 -1 -14 -7
-16 -17 -5 -15 -22 3 -22 8 0 15 6 15 14 0 19 40 43 94 57 52 13 70 29 34 29
-14 0 -33 7 -44 15 -10 8 -31 15 -45 15 -15 0 -32 7 -39 16 -10 11 -23 14 -49
9 -31 -5 -40 -2 -66 25 -28 29 -32 30 -112 30 -70 0 -83 -3 -83 -16z"/>
<path d="M436 1142 c-7 -12 3 -42 14 -42 16 0 18 15 5 33 -7 10 -16 14 -19 9z"/>
<path d="M455 1041 c6 -27 3 -32 -19 -41 -14 -5 -26 -14 -26 -19 0 -15 61
-128 86 -158 l23 -28 -5 80 c-4 52 -2 90 6 110 l12 30 20 -70 c15 -53 18 -73
9 -87 -14 -22 -14 -55 -1 -63 6 -3 10 -19 10 -36 0 -36 9 -36 60 -4 30 19 40
32 40 51 0 14 11 40 24 57 23 31 44 127 27 127 -4 0 -14 -11 -21 -25 -12 -23
-15 -24 -30 -10 -16 14 -18 14 -24 0 -3 -9 -6 -31 -6 -49 0 -39 -5 -45 -31
-39 -18 5 -19 11 -13 77 l6 71 -43 21 c-24 12 -59 25 -78 29 -33 7 -33 7 -26
-24z"/>
<path d="M330 1001 c0 -23 -5 -63 -11 -88 -7 -27 -8 -48 -3 -52 10 -6 21 -39
46 -131 18 -67 22 -18 9 96 -6 51 -11 115 -11 142 0 32 -5 54 -15 62 -13 11
-15 7 -15 -29z"/>
<path d="M1177 979 c25 -44 43 -49 43 -10 0 20 -5 31 -14 31 -8 0 -22 3 -31 6
-14 6 -14 2 2 -27z"/>
<path d="M918 983 c7 -3 16 -2 19 1 4 3 -2 6 -13 5 -11 0 -14 -3 -6 -6z"/>
<path d="M396 952 c-7 -12 46 -202 56 -202 20 0 17 50 -7 107 -14 35 -25 69
-25 77 0 18 -16 30 -24 18z"/>
<path d="M831 925 c-46 -42 -55 -44 -47 -10 7 27 -6 33 -24 13 -58 -69 -99
-141 -70 -123 5 3 28 7 51 10 22 2 54 7 69 10 33 7 53 -13 21 -22 -12 -3 -21
-8 -21 -12 0 -3 -34 -41 -75 -84 -41 -42 -82 -91 -90 -107 -9 -17 -19 -30 -24
-30 -16 0 -64 64 -88 119 -27 60 -27 60 -70 -25 -26 -50 -41 -134 -24 -134 6
0 11 -7 11 -15 0 -8 4 -15 10 -15 5 0 7 13 4 30 -10 46 4 103 23 96 10 -4 17
1 20 14 5 21 6 21 19 1 8 -11 11 -26 8 -35 -4 -10 -1 -16 9 -16 8 0 20 -7 28
-16 13 -15 6 -26 -24 -37 -5 -1 1 -19 13 -40 12 -20 20 -44 17 -51 -3 -8 -1
-17 6 -20 8 -3 7 -9 -5 -19 -10 -8 -18 -19 -18 -26 0 -6 -4 -11 -10 -11 -18 0
-50 40 -50 63 0 12 -7 31 -15 41 -8 11 -15 14 -15 8 0 -7 -16 -28 -35 -47 -43
-43 -78 -45 -155 -7 -39 19 -54 32 -52 45 2 11 -4 17 -16 17 -24 0 -42 21 -78
87 -32 60 -42 62 -24 6 17 -55 72 -132 126 -177 39 -33 44 -40 30 -48 -26 -15
-96 32 -157 106 -30 36 -57 65 -61 65 -4 1 -3 -13 2 -30 5 -16 6 -37 3 -45 -3
-9 2 -14 16 -14 11 0 26 -9 33 -20 7 -11 16 -20 21 -20 4 0 35 -18 68 -41 63
-43 113 -64 194 -83 39 -9 51 -16 53 -33 5 -33 -33 -53 -99 -53 -41 0 -60 -5
-72 -18 -16 -17 -15 -18 17 -14 19 2 47 -3 66 -13 17 -9 34 -14 38 -11 3 3 16
-1 30 -10 29 -19 40 -11 44 36 2 27 10 38 31 48 15 7 36 11 46 7 33 -10 63
-74 65 -137 l1 -58 37 0 c20 0 38 5 40 11 2 7 12 7 29 1 13 -6 85 -10 158 -11
l134 0 -7 32 c-3 18 -9 44 -12 59 -5 23 -2 28 17 31 72 14 181 42 184 48 3 3
-17 9 -43 13 -26 3 -64 17 -85 31 -32 22 -37 31 -37 63 0 21 -6 44 -12 50 -18
18 9 34 34 21 14 -7 24 -5 41 11 14 14 31 20 50 17 21 -3 27 1 27 14 0 22 -26
49 -48 49 -10 0 -33 -5 -52 -11 -47 -14 -111 -13 -121 2 -11 18 -38 3 -52 -28
-7 -16 -19 -29 -27 -30 -8 -1 -25 -5 -36 -8 -17 -5 -32 3 -67 39 -79 79 -78
83 69 233 86 89 97 96 107 80 33 -51 30 -50 67 -34 l35 15 -32 1 c-18 1 -33 5
-33 11 0 13 64 45 120 60 25 7 40 15 34 17 -14 5 -152 -12 -176 -22 -37 -15
-16 16 38 57 31 23 51 44 45 46 -6 2 -11 10 -11 17 0 16 -47 7 -126 -25 -30
-13 -57 -20 -60 -17 -6 6 35 70 48 75 11 5 10 22 -2 22 -5 0 -27 -16 -49 -35z
m-251 -395 c0 -5 9 -10 20 -10 11 0 20 -6 20 -14 0 -28 -19 -26 -40 4 -12 16
-17 30 -11 30 6 0 11 -4 11 -10z m105 -150 c16 -16 26 -32 24 -35 -3 -2 -40
-7 -82 -10 -56 -5 -77 -3 -77 5 0 8 9 10 23 6 20 -5 26 1 40 29 20 43 35 44
72 5z m193 -34 c-4 -22 -3 -23 18 -16 13 5 25 6 28 2 7 -12 -19 -57 -31 -55
-6 1 -13 -11 -17 -27 -4 -22 -11 -30 -26 -30 -23 0 -28 38 -8 58 8 8 8 15 -1
26 -18 21 4 58 38 65 2 1 1 -10 -1 -23z m-355 -10 c14 -21 14 -26 1 -45 -12
-17 -19 -19 -35 -11 -31 17 -20 71 17 80 1 0 9 -11 17 -24z m437 -105 c16 -30
13 -61 -5 -55 -10 4 -15 0 -15 -10 0 -26 -29 -76 -43 -76 -8 0 -18 22 -24 53
-12 51 -11 53 18 80 35 32 54 34 69 8z m-290 -12 c12 -8 10 -9 -7 -4 -18 5
-22 3 -17 -9 4 -11 0 -16 -14 -16 -22 0 -37 26 -19 34 20 8 41 6 57 -5z m40
-34 c0 -15 -26 -32 -36 -23 -2 3 -2 13 2 22 8 20 34 21 34 1z m110 -4 c0 -5
-7 -14 -15 -21 -16 -14 -18 -10 -9 14 6 17 24 22 24 7z m39 -8 c0 -5 -4 -17
-9 -28 -8 -18 -9 -17 -9 8 -1 15 4 27 9 27 6 0 10 -3 9 -7z m-182 -45 c-3 -8
-6 -5 -6 6 -1 11 2 17 5 13 3 -3 4 -12 1 -19z m273 -78 c0 -5 -15 -10 -32 -9
-28 0 -30 2 -13 9 28 12 45 12 45 0z"/>
<path d="M525 767 c-4 -10 -5 -21 -1 -24 10 -10 18 4 13 24 -4 17 -4 17 -12 0z"/>
<path d="M966 645 c-3 -8 -1 -15 4 -15 6 0 10 7 10 15 0 8 -2 15 -4 15 -2 0
-6 -7 -10 -15z"/>
<path d="M949 533 c-27 -31 -29 -40 -12 -54 15 -12 16 -12 10 4 -5 12 -1 20
12 25 12 5 16 13 12 25 -6 18 -7 18 -22 0z"/>
<path d="M83 363 c-20 -13 -21 -17 -8 -30 8 -8 15 -25 15 -38 0 -18 4 -22 20
-18 21 6 26 35 14 81 -7 26 -11 26 -41 5z"/>
<path d="M1040 76 c0 -8 5 -18 10 -21 6 -3 10 1 10 9 0 8 -4 18 -10 21 -5 3
-10 -1 -10 -9z"/>
</g>
</svg>
